<mxfile host="Electron" modified="2023-11-13T10:00:26.465Z" agent="Mozilla/5.0 (Macintosh; Intel Mac OS X 10_15_7) AppleWebKit/537.36 (KHTML, like Gecko) draw.io/22.0.3 Chrome/114.0.5735.289 Electron/25.8.4 Safari/537.36" etag="yIl5IKGe49DpFIV4W2eq" version="22.0.3" type="device">
  <diagram name="Page-1" id="f_OcPDaGvzNe7NUMEgvZ">
    <mxGraphModel dx="1058" dy="491" grid="1" gridSize="10" guides="1" tooltips="1" connect="1" arrows="1" fold="1" page="1" pageScale="1" pageWidth="850" pageHeight="1100" math="0" shadow="0">
      <root>
        <mxCell id="0" />
        <mxCell id="1" parent="0" />
        <mxCell id="hjLrlj5gXz5UuQwmA6DW-25" value="" style="rounded=1;whiteSpace=wrap;html=1;" vertex="1" parent="1">
          <mxGeometry x="310" y="75" width="130" height="80" as="geometry" />
        </mxCell>
        <mxCell id="hjLrlj5gXz5UuQwmA6DW-23" value="" style="rounded=1;whiteSpace=wrap;html=1;" vertex="1" parent="1">
          <mxGeometry x="320" y="90" width="130" height="80" as="geometry" />
        </mxCell>
        <mxCell id="hjLrlj5gXz5UuQwmA6DW-1" value="&lt;table&gt;&lt;tbody&gt;&lt;tr&gt;&lt;td&gt;&lt;/td&gt;&lt;td&gt;&lt;br&gt;&lt;/td&gt;&lt;td&gt;&lt;br&gt;&lt;/td&gt;&lt;td&gt;&lt;br&gt;&lt;/td&gt;&lt;/tr&gt;&lt;tr&gt;&lt;td&gt;&lt;br&gt;&lt;/td&gt;&lt;td&gt;&lt;br&gt;&lt;/td&gt;&lt;td&gt;&lt;br&gt;&lt;/td&gt;&lt;td&gt;&lt;br&gt;&lt;/td&gt;&lt;/tr&gt;&lt;/tbody&gt;&lt;/table&gt;" style="rounded=1;whiteSpace=wrap;html=1;align=left;arcSize=11;" vertex="1" parent="1">
          <mxGeometry x="30" y="70" width="160" height="120" as="geometry" />
        </mxCell>
        <mxCell id="hjLrlj5gXz5UuQwmA6DW-2" value="&lt;font style=&quot;font-size: 10px;&quot;&gt;Node priorety queueu&lt;/font&gt;" style="shape=cylinder3;whiteSpace=wrap;html=1;boundedLbl=1;backgroundOutline=1;size=15;" vertex="1" parent="1">
          <mxGeometry x="50" y="117.5" width="80" height="62.5" as="geometry" />
        </mxCell>
        <mxCell id="hjLrlj5gXz5UuQwmA6DW-3" value="" style="rounded=1;whiteSpace=wrap;html=1;" vertex="1" parent="1">
          <mxGeometry x="330" y="105" width="130" height="80" as="geometry" />
        </mxCell>
        <mxCell id="hjLrlj5gXz5UuQwmA6DW-7" value="Delegator" style="text;html=1;strokeColor=none;fillColor=none;align=center;verticalAlign=middle;whiteSpace=wrap;rounded=0;" vertex="1" parent="1">
          <mxGeometry x="40" y="65" width="60" height="30" as="geometry" />
        </mxCell>
        <mxCell id="hjLrlj5gXz5UuQwmA6DW-9" value="Ethereum Network" style="ellipse;shape=cloud;whiteSpace=wrap;html=1;" vertex="1" parent="1">
          <mxGeometry x="510" y="30" width="360" height="250" as="geometry" />
        </mxCell>
        <mxCell id="hjLrlj5gXz5UuQwmA6DW-10" value="" style="curved=1;endArrow=classic;html=1;rounded=0;exitX=1;exitY=0.5;exitDx=0;exitDy=0;entryX=0.5;entryY=0.28;entryDx=0;entryDy=0;entryPerimeter=0;" edge="1" parent="1" source="hjLrlj5gXz5UuQwmA6DW-3" target="hjLrlj5gXz5UuQwmA6DW-9">
          <mxGeometry width="50" height="50" relative="1" as="geometry">
            <mxPoint x="490" y="120" as="sourcePoint" />
            <mxPoint x="540" y="70" as="targetPoint" />
            <Array as="points">
              <mxPoint x="540" y="120" />
              <mxPoint x="520" y="40" />
            </Array>
          </mxGeometry>
        </mxCell>
        <mxCell id="hjLrlj5gXz5UuQwmA6DW-13" value="" style="curved=1;endArrow=classic;html=1;rounded=0;exitX=1;exitY=0.5;exitDx=0;exitDy=0;entryX=0.5;entryY=0.68;entryDx=0;entryDy=0;entryPerimeter=0;" edge="1" parent="1" source="hjLrlj5gXz5UuQwmA6DW-3" target="hjLrlj5gXz5UuQwmA6DW-9">
          <mxGeometry width="50" height="50" relative="1" as="geometry">
            <mxPoint x="400" y="250" as="sourcePoint" />
            <mxPoint x="544" y="228" as="targetPoint" />
            <Array as="points">
              <mxPoint x="450" y="250" />
              <mxPoint x="600" y="200" />
            </Array>
          </mxGeometry>
        </mxCell>
        <mxCell id="hjLrlj5gXz5UuQwmA6DW-14" value="" style="curved=1;endArrow=classic;html=1;rounded=0;exitX=1;exitY=0.5;exitDx=0;exitDy=0;" edge="1" parent="1" source="hjLrlj5gXz5UuQwmA6DW-3">
          <mxGeometry width="50" height="50" relative="1" as="geometry">
            <mxPoint x="590" y="165" as="sourcePoint" />
            <mxPoint x="640" y="115" as="targetPoint" />
            <Array as="points">
              <mxPoint x="640" y="165" />
              <mxPoint x="550" y="120" />
            </Array>
          </mxGeometry>
        </mxCell>
        <mxCell id="hjLrlj5gXz5UuQwmA6DW-15" value="" style="shape=hexagon;perimeter=hexagonPerimeter2;whiteSpace=wrap;html=1;fixedSize=1;size=10;" vertex="1" parent="1">
          <mxGeometry x="640" y="105" width="30" height="20" as="geometry" />
        </mxCell>
        <mxCell id="hjLrlj5gXz5UuQwmA6DW-20" value="" style="shape=hexagon;perimeter=hexagonPerimeter2;whiteSpace=wrap;html=1;fixedSize=1;size=10;" vertex="1" parent="1">
          <mxGeometry x="690" y="95" width="30" height="20" as="geometry" />
        </mxCell>
        <mxCell id="hjLrlj5gXz5UuQwmA6DW-22" value="" style="shape=hexagon;perimeter=hexagonPerimeter2;whiteSpace=wrap;html=1;fixedSize=1;size=10;" vertex="1" parent="1">
          <mxGeometry x="690" y="200" width="30" height="20" as="geometry" />
        </mxCell>
        <mxCell id="hjLrlj5gXz5UuQwmA6DW-24" value="" style="rounded=1;whiteSpace=wrap;html=1;" vertex="1" parent="1">
          <mxGeometry x="330" y="105" width="130" height="80" as="geometry" />
        </mxCell>
        <mxCell id="hjLrlj5gXz5UuQwmA6DW-8" value="Crawler" style="text;html=1;strokeColor=none;fillColor=none;align=center;verticalAlign=middle;whiteSpace=wrap;rounded=0;" vertex="1" parent="1">
          <mxGeometry x="340" y="115" width="60" height="30" as="geometry" />
        </mxCell>
        <mxCell id="hjLrlj5gXz5UuQwmA6DW-26" value="" style="shape=step;perimeter=stepPerimeter;whiteSpace=wrap;html=1;fixedSize=1;size=10;" vertex="1" parent="1">
          <mxGeometry x="220" y="115" width="60" height="30" as="geometry" />
        </mxCell>
      </root>
    </mxGraphModel>
  </diagram>
</mxfile>
